<mxfile host="app.diagrams.net" modified="2020-06-23T14:33:01.129Z" agent="5.0 (Macintosh; Intel Mac OS X 10_15_4) AppleWebKit/537.36 (KHTML, like Gecko) Chrome/83.0.4103.61 Safari/537.36" etag="Whf6FzhF9TiwawUqW3__" version="13.3.0" type="github">
  <diagram id="5YqV7aeCpT0gA9eQQBi8" name="Page-1">
    <mxGraphModel dx="1306" dy="717" grid="1" gridSize="10" guides="1" tooltips="1" connect="1" arrows="1" fold="1" page="1" pageScale="1" pageWidth="827" pageHeight="1169" math="0" shadow="0">
      <root>
        <mxCell id="0" />
        <mxCell id="1" parent="0" />
        <mxCell id="YoM1EGy6H82A4-IvOis5-20" value="Public subnet" style="points=[[0,0],[0.25,0],[0.5,0],[0.75,0],[1,0],[1,0.25],[1,0.5],[1,0.75],[1,1],[0.75,1],[0.5,1],[0.25,1],[0,1],[0,0.75],[0,0.5],[0,0.25]];outlineConnect=0;gradientColor=none;html=1;whiteSpace=wrap;fontSize=12;fontStyle=0;shape=mxgraph.aws4.group;grIcon=mxgraph.aws4.group_security_group;grStroke=0;strokeColor=#248814;fillColor=#E9F3E6;verticalAlign=top;align=left;spacingLeft=30;fontColor=#248814;dashed=0;" vertex="1" parent="1">
          <mxGeometry x="730" y="270.5" width="130" height="220" as="geometry" />
        </mxCell>
        <mxCell id="jTm_X5ptWoJomPzZvTav-5" value="&lt;meta charset=&quot;utf-8&quot;&gt;&lt;span style=&quot;color: rgb(0, 0, 0); font-family: helvetica; font-size: 12px; font-style: normal; font-weight: 400; letter-spacing: normal; text-align: center; text-indent: 0px; text-transform: none; word-spacing: 0px; background-color: rgb(248, 249, 250); display: inline; float: none;&quot;&gt;Backend&lt;/span&gt;" style="points=[[0,0],[0.25,0],[0.5,0],[0.75,0],[1,0],[1,0.25],[1,0.5],[1,0.75],[1,1],[0.75,1],[0.5,1],[0.25,1],[0,1],[0,0.75],[0,0.5],[0,0.25]];outlineConnect=0;gradientColor=none;html=1;whiteSpace=wrap;fontSize=12;fontStyle=0;shape=mxgraph.aws4.group;grIcon=mxgraph.aws4.group_aws_cloud_alt;strokeColor=#0D0D0D;fillColor=none;verticalAlign=top;align=left;spacingLeft=30;fontColor=#232F3E;dashed=0;shadow=0;" parent="1" vertex="1">
          <mxGeometry x="452" y="89.5" width="800" height="551" as="geometry" />
        </mxCell>
        <mxCell id="jTm_X5ptWoJomPzZvTav-6" value="VPC" style="points=[[0,0],[0.25,0],[0.5,0],[0.75,0],[1,0],[1,0.25],[1,0.5],[1,0.75],[1,1],[0.75,1],[0.5,1],[0.25,1],[0,1],[0,0.75],[0,0.5],[0,0.25]];outlineConnect=0;gradientColor=none;html=1;whiteSpace=wrap;fontSize=12;fontStyle=0;shape=mxgraph.aws4.group;grIcon=mxgraph.aws4.group_vpc;strokeColor=#248814;fillColor=none;verticalAlign=top;align=left;spacingLeft=30;fontColor=#AAB7B8;dashed=0;direction=west;" parent="1" vertex="1">
          <mxGeometry x="700" y="250" width="492" height="260" as="geometry" />
        </mxCell>
        <mxCell id="HdA-l2Z6SDHU2BZY50B2-54" value="" style="edgeStyle=orthogonalEdgeStyle;rounded=0;orthogonalLoop=1;jettySize=auto;html=1;" parent="1" source="HdA-l2Z6SDHU2BZY50B2-23" target="HdA-l2Z6SDHU2BZY50B2-53" edge="1">
          <mxGeometry relative="1" as="geometry">
            <mxPoint x="799.8" y="300.75" as="sourcePoint" />
            <mxPoint x="910" y="200" as="targetPoint" />
            <Array as="points" />
          </mxGeometry>
        </mxCell>
        <mxCell id="HdA-l2Z6SDHU2BZY50B2-17" value="" style="points=[[0,0],[0.25,0],[0.5,0],[0.75,0],[1,0],[1,0.25],[1,0.5],[1,0.75],[1,1],[0.75,1],[0.5,1],[0.25,1],[0,1],[0,0.75],[0,0.5],[0,0.25]];outlineConnect=0;gradientColor=none;html=1;whiteSpace=wrap;fontSize=12;fontStyle=0;shape=mxgraph.aws4.group;grIcon=mxgraph.aws4.group_security_group;grStroke=0;strokeColor=#147EBA;fillColor=#E6F2F8;verticalAlign=top;align=left;spacingLeft=30;fontColor=#147EBA;dashed=0;" parent="1" vertex="1">
          <mxGeometry x="875.25" y="270.5" width="139.5" height="219" as="geometry" />
        </mxCell>
        <mxCell id="jTm_X5ptWoJomPzZvTav-11" value="Private subnet" style="points=[[0,0],[0.25,0],[0.5,0],[0.75,0],[1,0],[1,0.25],[1,0.5],[1,0.75],[1,1],[0.75,1],[0.5,1],[0.25,1],[0,1],[0,0.75],[0,0.5],[0,0.25]];outlineConnect=0;gradientColor=none;html=1;whiteSpace=wrap;fontSize=12;fontStyle=0;shape=mxgraph.aws4.group;grIcon=mxgraph.aws4.group_security_group;grStroke=0;strokeColor=#147EBA;fillColor=#E6F2F8;verticalAlign=top;align=left;spacingLeft=30;fontColor=#147EBA;dashed=0;" parent="1" vertex="1">
          <mxGeometry x="1030" y="270.5" width="143.5" height="219" as="geometry" />
        </mxCell>
        <mxCell id="HdA-l2Z6SDHU2BZY50B2-9" style="edgeStyle=orthogonalEdgeStyle;rounded=0;orthogonalLoop=1;jettySize=auto;html=1;" parent="1" source="jTm_X5ptWoJomPzZvTav-4" target="HdA-l2Z6SDHU2BZY50B2-6" edge="1">
          <mxGeometry relative="1" as="geometry" />
        </mxCell>
        <mxCell id="jTm_X5ptWoJomPzZvTav-4" value="devices" style="outlineConnect=0;gradientColor=none;fontColor=#545B64;strokeColor=none;fillColor=#879196;dashed=0;verticalLabelPosition=bottom;verticalAlign=top;align=center;html=1;fontSize=12;fontStyle=0;aspect=fixed;shape=mxgraph.aws4.illustration_devices;pointerEvents=1" parent="1" vertex="1">
          <mxGeometry x="200" y="243" width="100" height="73" as="geometry" />
        </mxCell>
        <mxCell id="jTm_X5ptWoJomPzZvTav-12" value="" style="outlineConnect=0;fontColor=#232F3E;gradientColor=#4D72F3;gradientDirection=north;fillColor=#3334B9;strokeColor=#ffffff;dashed=0;verticalLabelPosition=bottom;verticalAlign=top;align=center;html=1;fontSize=12;fontStyle=0;aspect=fixed;shape=mxgraph.aws4.resourceIcon;resIcon=mxgraph.aws4.database;" parent="1" vertex="1">
          <mxGeometry x="1080" y="296.88" width="77" height="77" as="geometry" />
        </mxCell>
        <mxCell id="jTm_X5ptWoJomPzZvTav-13" value="" style="outlineConnect=0;fontColor=#232F3E;gradientColor=none;fillColor=#3334B9;strokeColor=none;dashed=0;verticalLabelPosition=bottom;verticalAlign=top;align=center;html=1;fontSize=12;fontStyle=0;aspect=fixed;pointerEvents=1;shape=mxgraph.aws4.elasticache_for_redis;" parent="1" vertex="1">
          <mxGeometry x="1080" y="390.5" width="78" height="69" as="geometry" />
        </mxCell>
        <mxCell id="jTm_X5ptWoJomPzZvTav-18" value="" style="outlineConnect=0;fontColor=#232F3E;gradientColor=#F34482;gradientDirection=north;fillColor=#BC1356;strokeColor=#ffffff;dashed=0;verticalLabelPosition=bottom;verticalAlign=top;align=center;html=1;fontSize=12;fontStyle=0;aspect=fixed;shape=mxgraph.aws4.resourceIcon;resIcon=mxgraph.aws4.cloudwatch;" parent="1" vertex="1">
          <mxGeometry x="622" y="530" width="78" height="78" as="geometry" />
        </mxCell>
        <mxCell id="jTm_X5ptWoJomPzZvTav-19" value="" style="outlineConnect=0;fontColor=#232F3E;gradientColor=#F34482;gradientDirection=north;fillColor=#BC1356;strokeColor=#ffffff;dashed=0;verticalLabelPosition=bottom;verticalAlign=top;align=center;html=1;fontSize=12;fontStyle=0;aspect=fixed;shape=mxgraph.aws4.resourceIcon;resIcon=mxgraph.aws4.cloudtrail;" parent="1" vertex="1">
          <mxGeometry x="867" y="530" width="78" height="78" as="geometry" />
        </mxCell>
        <mxCell id="jTm_X5ptWoJomPzZvTav-73" value="" style="edgeStyle=elbowEdgeStyle;rounded=0;orthogonalLoop=1;jettySize=auto;elbow=vertical;html=1;strokeColor=#000000;" parent="1" source="jTm_X5ptWoJomPzZvTav-22" target="jTm_X5ptWoJomPzZvTav-55" edge="1">
          <mxGeometry relative="1" as="geometry">
            <mxPoint x="696" y="190" as="targetPoint" />
            <Array as="points">
              <mxPoint x="690" y="169" />
              <mxPoint x="670" y="181" />
            </Array>
          </mxGeometry>
        </mxCell>
        <mxCell id="jTm_X5ptWoJomPzZvTav-22" value="" style="outlineConnect=0;fontColor=#232F3E;gradientColor=#945DF2;gradientDirection=north;fillColor=#5A30B5;strokeColor=#ffffff;dashed=0;verticalLabelPosition=bottom;verticalAlign=top;align=center;html=1;fontSize=12;fontStyle=0;aspect=fixed;shape=mxgraph.aws4.resourceIcon;resIcon=mxgraph.aws4.cloudfront;" parent="1" vertex="1">
          <mxGeometry x="586" y="130" width="78" height="78" as="geometry" />
        </mxCell>
        <mxCell id="jTm_X5ptWoJomPzZvTav-23" value="ENI" style="outlineConnect=0;fontColor=#232F3E;gradientColor=none;fillColor=#5A30B5;strokeColor=none;dashed=0;verticalLabelPosition=bottom;verticalAlign=top;align=center;html=1;fontSize=12;fontStyle=0;aspect=fixed;pointerEvents=1;shape=mxgraph.aws4.elastic_network_interface;" parent="1" vertex="1">
          <mxGeometry x="1040" y="316" width="32" height="32" as="geometry" />
        </mxCell>
        <mxCell id="jTm_X5ptWoJomPzZvTav-24" value="ENI" style="outlineConnect=0;fontColor=#232F3E;gradientColor=none;fillColor=#5A30B5;strokeColor=none;dashed=0;verticalLabelPosition=bottom;verticalAlign=top;align=center;html=1;fontSize=12;fontStyle=0;aspect=fixed;pointerEvents=1;shape=mxgraph.aws4.elastic_network_interface;" parent="1" vertex="1">
          <mxGeometry x="1041" y="410" width="30" height="30" as="geometry" />
        </mxCell>
        <mxCell id="jTm_X5ptWoJomPzZvTav-55" value="" style="outlineConnect=0;fontColor=#232F3E;gradientColor=#60A337;gradientDirection=north;fillColor=#277116;strokeColor=#ffffff;dashed=0;verticalLabelPosition=bottom;verticalAlign=top;align=center;html=1;fontSize=12;fontStyle=0;aspect=fixed;shape=mxgraph.aws4.resourceIcon;resIcon=mxgraph.aws4.s3;shadow=0;" parent="1" vertex="1">
          <mxGeometry x="716" y="130" width="78" height="78" as="geometry" />
        </mxCell>
        <mxCell id="jTm_X5ptWoJomPzZvTav-86" value="Static content" style="text;html=1;strokeColor=none;fillColor=none;align=center;verticalAlign=middle;whiteSpace=wrap;rounded=0;shadow=0;" parent="1" vertex="1">
          <mxGeometry x="700" y="208" width="76" height="20" as="geometry" />
        </mxCell>
        <mxCell id="jTm_X5ptWoJomPzZvTav-87" value="CloudFront CDN" style="text;html=1;strokeColor=none;fillColor=none;align=center;verticalAlign=middle;whiteSpace=wrap;rounded=0;shadow=0;" parent="1" vertex="1">
          <mxGeometry x="580" y="210" width="90" height="20" as="geometry" />
        </mxCell>
        <mxCell id="jTm_X5ptWoJomPzZvTav-90" value="api.app.com" style="text;html=1;strokeColor=none;fillColor=none;align=center;verticalAlign=middle;whiteSpace=wrap;rounded=0;shadow=0;" parent="1" vertex="1">
          <mxGeometry x="480" y="381" width="40" height="20" as="geometry" />
        </mxCell>
        <mxCell id="jTm_X5ptWoJomPzZvTav-92" value="app.com" style="text;html=1;strokeColor=none;fillColor=none;align=center;verticalAlign=middle;whiteSpace=wrap;rounded=0;shadow=0;" parent="1" vertex="1">
          <mxGeometry x="511" y="170" width="40" height="20" as="geometry" />
        </mxCell>
        <mxCell id="jTm_X5ptWoJomPzZvTav-95" value="&lt;h1&gt;&lt;div&gt;&lt;div&gt;&lt;span style=&quot;font-size: 12px&quot;&gt;ECS Based compute for containerized workloads&lt;/span&gt;&lt;/div&gt;&lt;ul&gt;&lt;li&gt;&lt;span style=&quot;font-size: 12px ; font-weight: 400&quot;&gt;Static content is served via S3 fronted by CloudFront&lt;/span&gt;&lt;/li&gt;&lt;li&gt;&lt;span style=&quot;font-size: 12px ; font-weight: 400&quot;&gt;Ecs Compute Powered by EC2 or Fargate which is fronted by ALB can serve api traffic&lt;/span&gt;&lt;/li&gt;&lt;li&gt;&lt;span style=&quot;font-size: 12px ; font-weight: 400&quot;&gt;APIGW still handles web socket connections.&lt;/span&gt;&lt;/li&gt;&lt;/ul&gt;&lt;/div&gt;&lt;div&gt;&lt;/div&gt;&lt;/h1&gt;&lt;h1&gt;&lt;div&gt;&lt;span style=&quot;font-size: 12px&quot;&gt;Accessing the App with paths(NOT IMPLEMENTED HERE)&lt;/span&gt;&lt;/div&gt;&lt;ul&gt;&lt;li&gt;&lt;span style=&quot;font-size: 12px ; font-weight: 400&quot;&gt;Path based url forwarding can be achieved by fronting app with CloudFront. CloudFront can have multiple origin.&lt;/span&gt;&lt;/li&gt;&lt;li&gt;&lt;span style=&quot;font-size: 12px ; font-weight: 400&quot;&gt;app.com -&amp;gt; CloudFront -&amp;gt; s3&lt;/span&gt;&lt;/li&gt;&lt;li&gt;&lt;span style=&quot;font-size: 12px ; font-weight: 400&quot;&gt;app.com/api-&amp;gt; CloudFront -&amp;gt; APIGW&lt;/span&gt;&lt;/li&gt;&lt;/ul&gt;&lt;/h1&gt;&lt;h1&gt;&lt;br style=&quot;font-size: 12px ; font-weight: 400 ; text-align: center&quot;&gt;&lt;br style=&quot;font-size: 12px ; font-weight: 400 ; text-align: center&quot;&gt;&lt;/h1&gt;" style="text;html=1;strokeColor=none;fillColor=none;spacing=5;spacingTop=-20;whiteSpace=wrap;overflow=hidden;rounded=0;shadow=0;" parent="1" vertex="1">
          <mxGeometry x="130" y="560" width="260" height="510" as="geometry" />
        </mxCell>
        <mxCell id="HdA-l2Z6SDHU2BZY50B2-2" value="CloudWatch" style="text;html=1;strokeColor=none;fillColor=none;align=center;verticalAlign=middle;whiteSpace=wrap;rounded=0;" parent="1" vertex="1">
          <mxGeometry x="641" y="608" width="40" height="20" as="geometry" />
        </mxCell>
        <mxCell id="HdA-l2Z6SDHU2BZY50B2-4" value="CloudTrail" style="text;html=1;strokeColor=none;fillColor=none;align=center;verticalAlign=middle;whiteSpace=wrap;rounded=0;" parent="1" vertex="1">
          <mxGeometry x="885" y="608" width="40" height="20" as="geometry" />
        </mxCell>
        <mxCell id="HdA-l2Z6SDHU2BZY50B2-11" style="edgeStyle=orthogonalEdgeStyle;rounded=0;orthogonalLoop=1;jettySize=auto;html=1;" parent="1" source="HdA-l2Z6SDHU2BZY50B2-6" target="jTm_X5ptWoJomPzZvTav-22" edge="1">
          <mxGeometry relative="1" as="geometry">
            <Array as="points">
              <mxPoint x="491" y="169" />
            </Array>
          </mxGeometry>
        </mxCell>
        <mxCell id="YoM1EGy6H82A4-IvOis5-30" value="" style="edgeStyle=orthogonalEdgeStyle;rounded=0;orthogonalLoop=1;jettySize=auto;html=1;" edge="1" parent="1" source="HdA-l2Z6SDHU2BZY50B2-6" target="YoM1EGy6H82A4-IvOis5-21">
          <mxGeometry relative="1" as="geometry">
            <Array as="points">
              <mxPoint x="491" y="380" />
            </Array>
          </mxGeometry>
        </mxCell>
        <mxCell id="HdA-l2Z6SDHU2BZY50B2-6" value="" style="outlineConnect=0;fontColor=#232F3E;gradientColor=#945DF2;gradientDirection=north;fillColor=#5A30B5;strokeColor=#ffffff;dashed=0;verticalLabelPosition=bottom;verticalAlign=top;align=center;html=1;fontSize=12;fontStyle=0;aspect=fixed;shape=mxgraph.aws4.resourceIcon;resIcon=mxgraph.aws4.route_53;" parent="1" vertex="1">
          <mxGeometry x="452" y="220" width="78" height="78" as="geometry" />
        </mxCell>
        <mxCell id="HdA-l2Z6SDHU2BZY50B2-21" value="" style="outlineConnect=0;fontColor=#232F3E;gradientColor=#F78E04;gradientDirection=north;fillColor=#D05C17;strokeColor=#ffffff;dashed=0;verticalLabelPosition=bottom;verticalAlign=top;align=center;html=1;fontSize=12;fontStyle=0;aspect=fixed;shape=mxgraph.aws4.resourceIcon;resIcon=mxgraph.aws4.ecr;" parent="1" vertex="1">
          <mxGeometry x="950" y="141" width="78" height="78" as="geometry" />
        </mxCell>
        <mxCell id="HdA-l2Z6SDHU2BZY50B2-33" style="edgeStyle=orthogonalEdgeStyle;rounded=0;orthogonalLoop=1;jettySize=auto;html=1;" parent="1" source="HdA-l2Z6SDHU2BZY50B2-22" target="HdA-l2Z6SDHU2BZY50B2-23" edge="1">
          <mxGeometry relative="1" as="geometry" />
        </mxCell>
        <mxCell id="HdA-l2Z6SDHU2BZY50B2-22" value="" style="outlineConnect=0;fontColor=#232F3E;gradientColor=#F78E04;gradientDirection=north;fillColor=#D05C17;strokeColor=#ffffff;dashed=0;verticalLabelPosition=bottom;verticalAlign=top;align=center;html=1;fontSize=12;fontStyle=0;aspect=fixed;shape=mxgraph.aws4.resourceIcon;resIcon=mxgraph.aws4.elastic_load_balancing;" parent="1" vertex="1">
          <mxGeometry x="749" y="341.5" width="78" height="78" as="geometry" />
        </mxCell>
        <mxCell id="YoM1EGy6H82A4-IvOis5-24" value="" style="edgeStyle=orthogonalEdgeStyle;rounded=0;orthogonalLoop=1;jettySize=auto;html=1;" edge="1" parent="1" source="HdA-l2Z6SDHU2BZY50B2-23" target="jTm_X5ptWoJomPzZvTav-23">
          <mxGeometry relative="1" as="geometry" />
        </mxCell>
        <mxCell id="YoM1EGy6H82A4-IvOis5-28" style="edgeStyle=orthogonalEdgeStyle;rounded=0;orthogonalLoop=1;jettySize=auto;html=1;" edge="1" parent="1" source="HdA-l2Z6SDHU2BZY50B2-23" target="jTm_X5ptWoJomPzZvTav-24">
          <mxGeometry relative="1" as="geometry">
            <Array as="points">
              <mxPoint x="949" y="380" />
              <mxPoint x="1056" y="380" />
            </Array>
          </mxGeometry>
        </mxCell>
        <mxCell id="HdA-l2Z6SDHU2BZY50B2-23" value="" style="outlineConnect=0;fontColor=#232F3E;gradientColor=#F78E04;gradientDirection=north;fillColor=#D05C17;strokeColor=#ffffff;dashed=0;verticalLabelPosition=bottom;verticalAlign=top;align=center;html=1;fontSize=12;fontStyle=0;aspect=fixed;shape=mxgraph.aws4.resourceIcon;resIcon=mxgraph.aws4.ecs;" parent="1" vertex="1">
          <mxGeometry x="914.37" y="290" width="70" height="70" as="geometry" />
        </mxCell>
        <mxCell id="HdA-l2Z6SDHU2BZY50B2-25" value="" style="outlineConnect=0;fontColor=#232F3E;gradientColor=#F78E04;gradientDirection=north;fillColor=#D05C17;strokeColor=#ffffff;dashed=0;verticalLabelPosition=bottom;verticalAlign=top;align=center;html=1;fontSize=12;fontStyle=0;aspect=fixed;shape=mxgraph.aws4.resourceIcon;resIcon=mxgraph.aws4.auto_scaling2;" parent="1" vertex="1">
          <mxGeometry x="917" y="399" width="71" height="71" as="geometry" />
        </mxCell>
        <mxCell id="HdA-l2Z6SDHU2BZY50B2-45" value="ECR" style="text;html=1;strokeColor=none;fillColor=none;align=center;verticalAlign=middle;whiteSpace=wrap;rounded=0;" parent="1" vertex="1">
          <mxGeometry x="925" y="223" width="40" height="20" as="geometry" />
        </mxCell>
        <mxCell id="HdA-l2Z6SDHU2BZY50B2-48" value="ECS" style="text;html=1;strokeColor=none;fillColor=none;align=center;verticalAlign=middle;whiteSpace=wrap;rounded=0;" parent="1" vertex="1">
          <mxGeometry x="910" y="361" width="40" height="20" as="geometry" />
        </mxCell>
        <mxCell id="HdA-l2Z6SDHU2BZY50B2-51" value="ASG" style="text;html=1;strokeColor=none;fillColor=none;align=center;verticalAlign=middle;whiteSpace=wrap;rounded=0;" parent="1" vertex="1">
          <mxGeometry x="902.5" y="469.5" width="40" height="20" as="geometry" />
        </mxCell>
        <mxCell id="YoM1EGy6H82A4-IvOis5-23" value="" style="edgeStyle=orthogonalEdgeStyle;rounded=0;orthogonalLoop=1;jettySize=auto;html=1;" edge="1" parent="1" source="HdA-l2Z6SDHU2BZY50B2-53" target="HdA-l2Z6SDHU2BZY50B2-21">
          <mxGeometry relative="1" as="geometry" />
        </mxCell>
        <mxCell id="HdA-l2Z6SDHU2BZY50B2-53" value="&lt;meta charset=&quot;utf-8&quot;&gt;&lt;span style=&quot;color: rgb(20, 126, 186); font-family: helvetica; font-size: 12px; font-style: normal; font-weight: 400; letter-spacing: normal; text-align: left; text-indent: 0px; text-transform: none; word-spacing: 0px; background-color: rgb(248, 249, 250); display: inline; float: none;&quot;&gt;Private subnet&lt;/span&gt;" style="text;whiteSpace=wrap;html=1;" parent="1" vertex="1">
          <mxGeometry x="902.5" y="266.88" width="100" height="30" as="geometry" />
        </mxCell>
        <mxCell id="YoM1EGy6H82A4-IvOis5-32" value="" style="edgeStyle=orthogonalEdgeStyle;rounded=0;orthogonalLoop=1;jettySize=auto;html=1;" edge="1" parent="1" source="YoM1EGy6H82A4-IvOis5-21" target="jTm_X5ptWoJomPzZvTav-6">
          <mxGeometry relative="1" as="geometry" />
        </mxCell>
        <mxCell id="YoM1EGy6H82A4-IvOis5-21" value="" style="outlineConnect=0;fontColor=#232F3E;gradientColor=#945DF2;gradientDirection=north;fillColor=#5A30B5;strokeColor=#ffffff;dashed=0;verticalLabelPosition=bottom;verticalAlign=top;align=center;html=1;fontSize=12;fontStyle=0;aspect=fixed;shape=mxgraph.aws4.resourceIcon;resIcon=mxgraph.aws4.api_gateway;" vertex="1" parent="1">
          <mxGeometry x="592" y="341" width="78" height="78" as="geometry" />
        </mxCell>
        <mxCell id="YoM1EGy6H82A4-IvOis5-29" style="edgeStyle=orthogonalEdgeStyle;rounded=0;orthogonalLoop=1;jettySize=auto;html=1;exitX=0.5;exitY=1;exitDx=0;exitDy=0;entryX=1;entryY=0.5;entryDx=0;entryDy=0;" edge="1" parent="1" source="HdA-l2Z6SDHU2BZY50B2-51" target="HdA-l2Z6SDHU2BZY50B2-51">
          <mxGeometry relative="1" as="geometry" />
        </mxCell>
        <mxCell id="YoM1EGy6H82A4-IvOis5-33" value="" style="outlineConnect=0;fontColor=#232F3E;gradientColor=none;fillColor=#5A30B5;strokeColor=none;dashed=0;verticalLabelPosition=bottom;verticalAlign=top;align=center;html=1;fontSize=12;fontStyle=0;aspect=fixed;pointerEvents=1;shape=mxgraph.aws4.internet_gateway;" vertex="1" parent="1">
          <mxGeometry x="690" y="351" width="50" height="50" as="geometry" />
        </mxCell>
      </root>
    </mxGraphModel>
  </diagram>
</mxfile>
